<?xml version="1.0" encoding="UTF-8"?>
<svg id="Layer_1" data-name="Layer 1" xmlns="http://www.w3.org/2000/svg" xmlns:xlink="http://www.w3.org/1999/xlink" viewBox="0 0 2760.15 1189.98">
  <defs>
    <style>
      .cls-1 {
        filter: url(#drop-shadow-1);
      }

      .cls-2 {
        filter: url(#drop-shadow-2);
      }

      .cls-3, .cls-4, .cls-5 {
        fill: #5796a8;
      }

      .cls-4 {
        filter: url(#drop-shadow-3);
      }

      .cls-5 {
        filter: url(#drop-shadow-4);
      }

      .cls-6 {
        fill: none;
        stroke: #5796a8;
        stroke-miterlimit: 10;
        stroke-width: 7px;
      }

      .cls-7 {
        fill: #f1f0e8;
      }
    </style>
    <filter id="drop-shadow-1" x="938.75" y="281.18" width="162" height="720" filterUnits="userSpaceOnUse">
      <feOffset dx="7" dy="7"/>
      <feGaussianBlur result="blur" stdDeviation="5"/>
      <feFlood flood-color="#000" flood-opacity=".75"/>
      <feComposite in2="blur" operator="in"/>
      <feComposite in="SourceGraphic"/>
    </filter>
    <filter id="drop-shadow-2" x="1878.75" y="302.18" width="707" height="702" filterUnits="userSpaceOnUse">
      <feOffset dx="7" dy="7"/>
      <feGaussianBlur result="blur-2" stdDeviation="5"/>
      <feFlood flood-color="#000" flood-opacity=".75"/>
      <feComposite in2="blur-2" operator="in"/>
      <feComposite in="SourceGraphic"/>
    </filter>
    <filter id="drop-shadow-3" x="1315.75" y="122.18" width="520" height="887" filterUnits="userSpaceOnUse">
      <feOffset dx="7" dy="7"/>
      <feGaussianBlur result="blur-3" stdDeviation="5"/>
      <feFlood flood-color="#000" flood-opacity=".75"/>
      <feComposite in2="blur-3" operator="in"/>
      <feComposite in="SourceGraphic"/>
    </filter>
    <filter id="drop-shadow-4" x="299.75" y="163.18" width="531" height="849" filterUnits="userSpaceOnUse">
      <feOffset dx="7" dy="7"/>
      <feGaussianBlur result="blur-4" stdDeviation="5"/>
      <feFlood flood-color="#000" flood-opacity=".75"/>
      <feComposite in2="blur-4" operator="in"/>
      <feComposite in="SourceGraphic"/>
    </filter>
  </defs>
  <rect class="cls-7" width="2760.15" height="1189.98" rx="95.85" ry="95.85"/>
  <g class="cls-1">
    <path class="cls-3" d="M1078.38,355.5c1.2,36.14-25.3,65.05-67.46,65.05-37.34,0-63.85-28.91-63.85-65.05s27.71-66.26,66.26-66.26,65.05,28.91,65.05,66.26ZM959.74,978.34v-408.98l106.01-44.21v453.19h-106.01Z"/>
  </g>
  <g class="cls-2">
    <path class="cls-3" d="M1970.12,599.74c-18.61,27.14-37.73,55.02-34.56,99.55,1.09,15.36,7.41,68.84,52.92,114.16,4.88,4.86,31.47,30.8,70.57,43.8,13.13,4.36,49.77,16.55,71,.73,4.77-3.56,7.29-7.42,8.04-8.55,0,0-5.4,2.78-5.4,2.78-.31,6.76,33.82-32.17,36.62-36.04,13.7-18.95,91.31-103.44,336.39-357.04,0,0,0-.01.02-.02.36-.45,6.86-8.55,6.4-16.5-.58-9.83-11.81-19.43-15.01-22.16-2.11-1.81-7.04-5.78-14.33-9.17-6.14-2.86-11.27-4.06-16.4-5.23-8.94-2.04-16.04-2.63-18.47-2.8-36.46-2.54-76.32-.97-91.05-.32-16.12.71-20.83.91-30.1.58-16.43-.59-24.05-2.66-44.37-1.35-47.6,3.06-80.08,22.07-145.05,60.09-59.7,34.94-94.93,65.68-123.89,91.26-22.34,19.72-33.16,31.41-43.32,46.23Z"/>
    <ellipse class="cls-3" cx="2278.71" cy="377.01" rx="56.63" ry="75.27" transform="translate(443.2 1779) rotate(-46.77)"/>
    <line class="cls-6" x1="2514.46" y1="353" x2="2481.11" y2="414.02"/>
    <line class="cls-6" x1="2493.34" y1="421.6" x2="2553.15" y2="398.93"/>
    <line class="cls-6" x1="2506.97" y1="441.42" x2="2562.81" y2="451.12"/>
    <circle class="cls-7" cx="2352.97" cy="447.17" r="21.78"/>
    <ellipse class="cls-7" cx="2278.71" cy="377.01" rx="34.19" ry="50.22" transform="translate(205.5 1395.09) rotate(-35.55)"/>
    <path class="cls-3" d="M2123.71,789.12c9.37,30.71,18.74,61.42,28.11,92.13,3.84,12.57,15.74,20.92,28.87,20.25,52.39-2.68,104.78-5.37,157.17-8.05,4.72-.24,9.02-2.19,12.25-5.26,4.8-4.56,3.35-12.57-2.67-15.32h0c-.74-.34-1.52-.58-2.32-.72l-6.37-1.1c-.22-.04-.45-.07-.68-.09-16.02-1.59-10.18-1.82-18.8-1.69-42.77.63-51.77-4.57-92.7-3.25-22.01.71-23.42,2.35-29.73.06-26.71-9.68-36.23-51.68-39.91-88.46"/>
    <path class="cls-6" d="M2026.03,981.64c1.74-13.67,5.57-32.28,14.43-52.89,9.46-22.01,21.25-38.39,30.45-49.31"/>
    <path class="cls-6" d="M1890.34,924.04c1.74-13.67,5.57-32.28,14.43-52.89,9.46-22.01,21.25-38.39,30.45-49.31"/>
    <path class="cls-6" d="M1948.69,952.64c1.74-13.67,5.57-32.28,14.43-52.89,9.46-22.01,21.25-38.39,30.45-49.31"/>
  </g>
  <polygon class="cls-4" points="1329.93 179.62 1324.4 986.34 1429.21 986.34 1429.21 767.09 1483.42 706.86 1684.6 986.34 1813.5 986.34 1556.9 643.01 1759.21 427.72 1624.71 459.95 1431.52 648.46 1429.21 131.03 1329.93 179.62"/>
  <path class="cls-5" d="M307.91,186.95c50.6-8.43,116.85-15.66,201.18-15.66,103.6,0,179.5,24.09,227.68,67.46,44.57,38.55,71.08,97.58,71.08,169.86s-21.68,131.31-62.64,173.47c-55.42,59.03-145.76,89.15-248.16,89.15-31.32,0-60.23-1.2-84.33-7.23v325.26h-104.81V186.95ZM412.72,578.47c22.89,6.02,51.8,8.43,86.74,8.43,126.49,0,203.59-61.44,203.59-173.47s-75.89-159.02-191.54-159.02c-45.78,0-80.71,3.61-98.78,8.43v315.62Z"/>
</svg>