<?xml version="1.0" encoding="UTF-8"?>
<svg id="Layer_1" data-name="Layer 1" xmlns="http://www.w3.org/2000/svg" xmlns:xlink="http://www.w3.org/1999/xlink" viewBox="0 0 1024 1024">
  <defs>
    <style>
      .cls-1 {
        filter: url(#drop-shadow-1);
      }

      .cls-2 {
        fill: #68a5b6;
      }

      .cls-3 {
        fill: #f3f2ec;
      }

      .cls-4 {
        stroke-width: 13px;
      }

      .cls-4, .cls-5 {
        fill: none;
        stroke: #68a5b6;
        stroke-miterlimit: 10;
      }

      .cls-5 {
        stroke-width: 7px;
      }
    </style>
    <filter id="drop-shadow-1" x="64.92" y="68.76" width="910.08" height="901.44" filterUnits="userSpaceOnUse">
      <feOffset dx="7" dy="7"/>
      <feGaussianBlur result="blur" stdDeviation="5"/>
      <feFlood flood-color="#000" flood-opacity=".75"/>
      <feComposite in2="blur" operator="in"/>
      <feComposite in="SourceGraphic"/>
    </filter>
  </defs>
  <rect class="cls-3" width="1024" height="1024" rx="126.23" ry="126.23"/>
  <g class="cls-1">
    <path class="cls-2" d="M183.07,451.55c-24.15,35.22-48.97,71.41-44.85,129.21,1.42,19.94,9.62,89.34,68.68,148.17,6.34,6.31,40.85,39.98,91.59,56.85,17.04,5.66,64.6,21.47,92.15.95,6.19-4.61,9.46-9.64,10.43-11.09,0,0-7.01,3.61-7.01,3.61-.41,8.77,43.9-41.75,47.53-46.77,17.79-24.59,118.51-134.26,436.61-463.4,0,0,.01-.01.02-.03.47-.58,8.9-11.1,8.3-21.41-.75-12.76-15.33-25.21-19.48-28.76-2.74-2.34-9.13-7.5-18.6-11.91-7.97-3.71-14.63-5.27-21.29-6.79-11.6-2.65-20.82-3.42-23.97-3.64-47.32-3.3-99.05-1.25-118.18-.42-20.92.92-27.04,1.18-39.07.75-21.33-.77-31.21-3.45-57.59-1.75-61.79,3.97-103.94,28.65-188.26,77.99-77.49,45.35-123.21,85.25-160.79,118.44-28.99,25.6-43.04,40.77-56.22,60Z"/>
    <ellipse class="cls-2" cx="583.6" cy="162.48" rx="73.51" ry="97.7" transform="translate(65.48 476.38) rotate(-46.77)"/>
    <line class="cls-5" x1="889.57" y1="131.31" x2="846.29" y2="210.51"/>
    <line class="cls-5" x1="862.16" y1="220.35" x2="939.79" y2="190.93"/>
    <line class="cls-5" x1="879.85" y1="246.08" x2="952.33" y2="258.66"/>
    <circle class="cls-3" cx="679.98" cy="253.54" r="28.27"/>
    <ellipse class="cls-3" cx="583.6" cy="162.48" rx="44.38" ry="65.19" transform="translate(14.3 369.58) rotate(-35.55)"/>
    <path class="cls-2" d="M382.41,697.36c12.16,39.86,24.33,79.72,36.49,119.58,4.98,16.32,20.43,27.15,37.46,26.28,68-3.48,135.99-6.97,203.99-10.45,6.13-.31,11.7-2.84,15.9-6.82,6.23-5.92,4.34-16.31-3.47-19.89h0c-.96-.44-1.97-.75-3.01-.93l-8.27-1.43c-.29-.05-.59-.09-.88-.12-20.8-2.07-13.21-2.36-24.4-2.19-55.51.82-67.19-5.93-120.32-4.21-28.56.93-30.4,3.05-38.59.08-34.67-12.56-47.02-67.08-51.8-114.81"/>
    <path class="cls-4" d="M255.63,947.23c2.26-17.74,7.23-41.9,18.72-68.65,12.27-28.57,27.58-49.83,39.53-64"/>
    <path class="cls-4" d="M79.52,872.47c2.26-17.74,7.23-41.9,18.72-68.65,12.27-28.57,27.58-49.83,39.53-64"/>
    <path class="cls-4" d="M155.26,909.59c2.26-17.74,7.23-41.9,18.72-68.65,12.27-28.57,27.58-49.83,39.53-64"/>
  </g>
</svg>