<?xml version="1.0" encoding="UTF-8"?>
<svg id="Layer_1" data-name="Layer 1" xmlns="http://www.w3.org/2000/svg" xmlns:xlink="http://www.w3.org/1999/xlink" viewBox="0 0 2460.4 890" width="2460.4" height="890">
  <defs>
    <style>
      .cls-1 {
        filter: url(#drop-shadow-1);
      }

      .cls-2 {
        filter: url(#drop-shadow-2);
      }

      .cls-3, .cls-4, .cls-5 {
        fill: #5796a8;
      }

      .cls-4 {
        filter: url(#drop-shadow-3);
      }

      .cls-5 {
        filter: url(#drop-shadow-4);
      }

      .cls-6 {
        fill: none;
        stroke: #5796a8;
        stroke-miterlimit: 10;
        stroke-width: 7px;
      }
    </style>
    <filter id="drop-shadow-1" x="639" y="159" width="162" height="720" filterUnits="userSpaceOnUse">
      <feOffset dx="7" dy="7"/>
      <feGaussianBlur result="blur" stdDeviation="5"/>
      <feFlood flood-color="#000" flood-opacity=".75"/>
      <feComposite in2="blur" operator="in"/>
      <feComposite in="SourceGraphic"/>
    </filter>
    <filter id="drop-shadow-2" x="1579" y="180" width="707" height="702" filterUnits="userSpaceOnUse">
      <feOffset dx="7" dy="7"/>
      <feGaussianBlur result="blur-2" stdDeviation="5"/>
      <feFlood flood-color="#000" flood-opacity=".75"/>
      <feComposite in2="blur-2" operator="in"/>
      <feComposite in="SourceGraphic"/>
    </filter>
    <filter id="drop-shadow-3" x="1016" y="0" width="520" height="887" filterUnits="userSpaceOnUse">
      <feOffset dx="7" dy="7"/>
      <feGaussianBlur result="blur-3" stdDeviation="5"/>
      <feFlood flood-color="#000" flood-opacity=".75"/>
      <feComposite in2="blur-3" operator="in"/>
      <feComposite in="SourceGraphic"/>
    </filter>
    <filter id="drop-shadow-4" x="0" y="41" width="531" height="849" filterUnits="userSpaceOnUse">
      <feOffset dx="7" dy="7"/>
      <feGaussianBlur result="blur-4" stdDeviation="5"/>
      <feFlood flood-color="#000" flood-opacity=".75"/>
      <feComposite in2="blur-4" operator="in"/>
      <feComposite in="SourceGraphic"/>
    </filter>
  </defs>
  <g class="cls-1">
    <path class="cls-3" d="M778.64,233.32c1.2,36.14-25.3,65.05-67.46,65.05-37.34,0-63.85-28.91-63.85-65.05s27.71-66.26,66.26-66.26,65.05,28.91,65.05,66.26ZM660,856.16v-408.98l106.01-44.21v453.19h-106.01Z"/>
  </g>
  <g class="cls-2">
    <line class="cls-6" x1="2214.71" y1="230.81" x2="2181.36" y2="291.83"/>
    <line class="cls-6" x1="2193.59" y1="299.42" x2="2253.4" y2="276.75"/>
    <line class="cls-6" x1="2207.22" y1="319.24" x2="2263.06" y2="328.93"/>
    <path class="cls-3" d="M2212.36,320.44c-.58-9.83-11.81-19.43-15.01-22.16-2.11-1.81-7.04-5.78-14.33-9.17-6.14-2.86-11.27-4.06-16.4-5.23-8.94-2.04-16.04-2.63-18.47-2.8-36.46-2.54-76.32-.97-91.05-.32-16.12.71-20.83.91-30.1.58-16.43-.59-24.05-2.66-44.37-1.35-47.6,3.06-80.08,22.07-145.05,60.09-59.7,34.94-94.93,65.68-123.89,91.26-22.34,19.72-33.16,31.41-43.32,46.23-18.61,27.14-37.73,55.02-34.56,99.55,1.09,15.36,7.41,68.84,52.92,114.16,4.88,4.86,31.47,30.8,70.57,43.8,13.13,4.36,49.77,16.55,71,.73,3.9-2.91,6.29-6.02,7.44-7.67,9.44-7.99,29.68-31.19,31.81-34.13,13.7-18.95,91.31-103.44,336.39-357.04,0,0,0-.01.02-.02.36-.45,6.86-8.55,6.4-16.5ZM2053.23,346.77c-12.03,0-21.78-9.75-21.78-21.78s9.75-21.78,21.78-21.78,21.78,9.75,21.78,21.78-9.75,21.78-21.78,21.78Z"/>
    <path class="cls-3" d="M2017.76,213.57c-30.29-28.47-72.21-33.08-93.63-10.3-21.42,22.79-14.24,64.35,16.05,92.82,30.29,28.48,72.21,33.08,93.63,10.3,21.42-22.79,14.24-64.35-16.05-92.82ZM2008.17,295.69c-15.37,10.98-40.89,1.59-57.02-20.98-16.13-22.57-16.74-49.76-1.38-60.74,15.37-10.98,40.89-1.59,57.02,20.98,16.13,22.57,16.74,49.76,1.38,60.74Z"/>
    <path class="cls-3" d="M1823.96,666.94c9.37,30.71,18.74,61.42,28.11,92.13,3.84,12.57,15.74,20.92,28.87,20.25,52.39-2.68,104.78-5.37,157.17-8.05,4.72-.24,9.02-2.19,12.25-5.26,4.8-4.56,3.35-12.57-2.67-15.32h0c-.74-.34-1.52-.58-2.32-.72l-6.37-1.1c-.22-.04-.45-.07-.68-.09-16.02-1.59-10.18-1.82-18.8-1.69-42.77.63-51.77-4.57-92.7-3.25-22.01.71-23.42,2.35-29.73.06-26.71-9.68-36.23-51.68-39.91-88.46"/>
    <path class="cls-6" d="M1726.28,859.46c1.74-13.67,5.57-32.28,14.43-52.89,9.46-22.01,21.25-38.39,30.45-49.31"/>
    <path class="cls-6" d="M1590.59,801.86c1.74-13.67,5.57-32.28,14.43-52.89,9.46-22.01,21.25-38.39,30.45-49.31"/>
    <path class="cls-6" d="M1648.94,830.46c1.74-13.67,5.57-32.28,14.43-52.89,9.46-22.01,21.25-38.39,30.45-49.31"/>
  </g>
  <polygon class="cls-4" points="1030.18 57.44 1024.66 864.16 1129.46 864.16 1129.46 644.91 1183.67 584.67 1384.85 864.16 1513.75 864.16 1257.16 520.83 1459.46 305.54 1324.96 337.77 1131.77 526.28 1129.46 8.84 1030.18 57.44"/>
  <path class="cls-5" d="M8.17,64.77c50.6-8.43,116.85-15.66,201.18-15.66,103.6,0,179.5,24.09,227.68,67.46,44.57,38.55,71.08,97.58,71.08,169.86s-21.68,131.31-62.64,173.47c-55.42,59.03-145.76,89.15-248.16,89.15-31.32,0-60.23-1.2-84.33-7.23v325.26H8.17V64.77ZM112.97,456.29c22.89,6.02,51.8,8.43,86.74,8.43,126.49,0,203.59-61.44,203.59-173.47s-75.89-159.02-191.54-159.02c-45.78,0-80.71,3.61-98.78,8.43v315.62Z"/>
</svg>